<?xml version="1.0" encoding="UTF-8" standalone="no"?>
<!-- Created with Inkscape (http://www.inkscape.org/) -->

<svg
   xmlns:dc="http://purl.org/dc/elements/1.1/"
   xmlns:cc="http://creativecommons.org/ns#"
   xmlns:rdf="http://www.w3.org/1999/02/22-rdf-syntax-ns#"
   xmlns:svg="http://www.w3.org/2000/svg"
   xmlns="http://www.w3.org/2000/svg"
   version="1.1"
   width="128"
   height="128"
   id="svg2">
  <defs
     id="defs4" />
  <metadata
     id="metadata7">
    <rdf:RDF>
      <cc:Work
         rdf:about="">
        <dc:format>image/svg+xml</dc:format>
        <dc:type
           rdf:resource="http://purl.org/dc/dcmitype/StillImage" />
        <dc:title></dc:title>
      </cc:Work>
    </rdf:RDF>
  </metadata>
  <g
     transform="translate(0,-924.36217)"
     id="layer1">
    <rect
       width="104"
       height="47.999989"
       ry="8"
       x="8"
       y="932.36218"
       id="rect2987-6-6"
       style="fill:#800000;stroke:#000000;stroke-opacity:1" />
    <rect
       width="104"
       height="47.999989"
       ry="8"
       x="8"
       y="988.36218"
       id="rect3796"
       style="fill:#000080;stroke:#000000;stroke-opacity:1" />
    <rect
       width="48"
       height="103.99998"
       ry="8"
       x="72"
       y="940.36218"
       id="rect2987-6"
       style="fill:#808000;stroke:#000000;stroke-opacity:1" />
    <rect
       width="48"
       height="103.99998"
       ry="8"
       x="16"
       y="940.36218"
       id="rect2987"
       style="fill:#cccccc;stroke:#000000;stroke-opacity:1" />
    <path
       d="m 44,40 4,-4 4,4 4,0 0,-4 -4,-4 4,-4 0,-4 -4,0 -4,4 -4,-4 -4,0 0,4 4,4 -4,4 0,4 z"
       transform="translate(0,924.36217)"
       id="path3800"
       style="fill:#000000;stroke:none" />
    <path
       d="m 100,964.36217 4,-4 4,4 4,0 0,-4 -4,-4 4,-4 0,-4 -4,0 -4,4 -4,-4 -4,0 0,4 4,4 -4,4 0,4 z"
       id="path3800-1"
       style="fill:#000000;stroke:none" />
  </g>
</svg>
